<?xml version="1.0" encoding="iso-8859-1"?>
<!-- Generator: Adobe Illustrator 19.0.0, SVG Export Plug-In . SVG Version: 6.00 Build 0)  -->
<svg version="1.1" id="Layer_1" xmlns="http://www.w3.org/2000/svg" xmlns:xlink="http://www.w3.org/1999/xlink" x="0px" y="0px"
	 viewBox="0 0 512 512" style="enable-background:new 0 0 512 512;" xml:space="preserve">
<g>
	<g>
		<path d="M405.333,64h-64V42.667C341.333,19.135,322.188,0,298.667,0h-85.333c-23.521,0-42.667,19.135-42.667,42.667V64h-64
			C83.146,64,64,83.135,64,106.667v32c0,5.896,4.771,10.667,10.667,10.667h10.667v320C85.333,492.865,104.479,512,128,512h256
			c23.521,0,42.667-19.135,42.667-42.667v-320h10.667c5.896,0,10.667-4.771,10.667-10.667v-32C448,83.135,428.854,64,405.333,64z
			 M192,42.667c0-11.76,9.563-21.333,21.333-21.333h85.333c11.771,0,21.333,9.573,21.333,21.333V64H192V42.667z M405.333,469.333
			c0,11.76-9.563,21.333-21.333,21.333H128c-11.771,0-21.333-9.573-21.333-21.333v-320h298.667V469.333z M426.667,128H85.333
			v-21.333c0-11.76,9.563-21.333,21.333-21.333h298.667c11.771,0,21.333,9.573,21.333,21.333V128z"/>
	</g>
</g>
<g>
</g>
<g>
</g>
<g>
</g>
<g>
</g>
<g>
</g>
<g>
</g>
<g>
</g>
<g>
</g>
<g>
</g>
<g>
</g>
<g>
</g>
<g>
</g>
<g>
</g>
<g>
</g>
<g>
</g>
</svg>
